<?xml version="1.0" encoding="utf-8"?>
<!-- Generator: Adobe Illustrator 22.1.0, SVG Export Plug-In . SVG Version: 6.00 Build 0)  -->
<svg version="1.1" id="a02f2390-8fa7-48a9-96f1-2ec5f63ecbc1"
	 xmlns="http://www.w3.org/2000/svg" xmlns:xlink="http://www.w3.org/1999/xlink" x="0px" y="0px" viewBox="0 0 1150 627.5"
	 style="enable-background:new 0 0 1150 627.5;" xml:space="preserve">
<style type="text/css">
	.st0{fill:#497586;}
	.st1{fill:#66AB86;}
	.st2{fill:#FF7B5C;}
	.st3{fill:#FF592C;}
	.st4{fill:#FB3E02;}
	.st5{fill:#D8C61E;}
	.st6{fill:#FFFAD2;}
	.st7{fill:#263B44;}
	.st8{fill:#1D525B;}
	.st9{fill:#F93E5A;}
	.st10{fill:#FF1234;}
	.st11{fill:#FF2D3F;}
	.st12{fill:#3EB69D;}
	.st13{fill:#009591;}
	.st14{fill:#008882;}
	.st15{fill:#631021;}
	.st16{fill:#821A38;}
	.st17{fill:#99224A;}
	.st18{fill:#1B2942;}
	.st19{fill:#2A3F59;}
	.st20{fill:#20324C;}
	.st21{fill:#FFD3C5;}
	.st22{fill:#FFBDA0;}
	.st23{fill:#8F5550;}
	.st24{fill:#E9F2DD;}
	.st25{opacity:0.3;fill:#A09489;}
	.st26{fill:#DB1D34;}
	.st27{fill:#FDCA6F;}
	.st28{fill:#EFB860;}
	.st29{fill:#773F3F;}
	.st30{fill:#FFFFFF;}
	.st31{fill:#77182F;}
	.st32{fill:#84203D;}
	.st33{opacity:0.5;fill:#6D3938;}
	.st34{fill:#FFE3DC;}
	.st35{fill:#F5ABA9;}
	.st36{opacity:0.5;fill:#8F5550;}
</style>
<title>teacher</title>
<g>
	<polygon class="st0" points="970.6,441.7 1057.5,441.7 1070.2,356.4 983.3,356.4 	"/>
	<polygon class="st1" points="1087.2,441.7 996.9,441.7 983.7,356.4 1074,356.4 	"/>
	<g>
		<path class="st2" d="M726.9,278.9c-0.6,0.1-1.1,0.6-1,1.2l0.5,5c0.1,0.6,0.6,1.1,1.2,1c0.6-0.1,1.1-0.6,1-1.2l-0.5-5
			C728.1,279.3,727.5,278.8,726.9,278.9z"/>
		<path class="st3" d="M726,280.1c-0.1,0-0.1,0.1-0.2,0.1l0.4,4.9c0.1,0.6,0.6,1.1,1.2,1c0.1,0,0.1-0.1,0.2-0.1l-0.4-4.9
			C727.2,280.5,726.7,280.1,726,280.1z"/>
		
			<rect x="726.1" y="284.4" transform="matrix(0.9959 -9.062690e-02 9.062690e-02 0.9959 -23.5266 67.1943)" class="st3" width="4.1" height="16.5"/>
		
			<rect x="727.7" y="302.5" transform="matrix(0.9959 -9.068587e-02 9.068587e-02 0.9959 -25.1704 67.4623)" class="st3" width="4.1" height="16.5"/>
		
			<rect x="728.9" y="284.3" transform="matrix(0.9959 -9.062140e-02 9.062140e-02 0.9959 -23.5078 67.3182)" class="st2" width="1.3" height="16.5"/>
		
			<rect x="730.6" y="302.3" transform="matrix(0.9959 -9.081182e-02 9.081182e-02 0.9959 -25.1836 67.6861)" class="st2" width="1.3" height="16.5"/>
		
			<rect x="726.1" y="284.6" transform="matrix(0.9959 -9.067499e-02 9.067499e-02 0.9959 -23.5561 67.0943)" class="st4" width="1.1" height="16.5"/>
		
			<rect x="727.7" y="302.6" transform="matrix(0.9959 -9.065275e-02 9.065275e-02 0.9959 -25.181 67.301)" class="st4" width="1.1" height="16.5"/>
		
			<rect x="726.9" y="300.9" transform="matrix(0.9959 -9.062690e-02 9.062690e-02 0.9959 -24.3413 67.306)" class="st5" width="4.1" height="1.6"/>
		
			<rect x="729" y="300.8" transform="matrix(0.9959 -9.062153e-02 9.062153e-02 0.9959 -24.3272 67.3951)" class="st6" width="2.1" height="1.6"/>
		<polygon class="st5" points="730.1,283.7 724.7,284.2 724.8,284.8 730.2,284.3 730.9,291.7 730.5,293.8 731.1,293.7 731.7,293.7 
			730.9,284.3 730.8,283.6 		"/>
	</g>
	<g>
		<path class="st0" d="M741.4,278c-0.6,0-1.1,0.5-1.2,1.1l-0.1,5c0,0.6,0.5,1.1,1.1,1.2c0.6,0,1.1-0.5,1.2-1.1l0.1-5
			C742.6,278.6,742.1,278.1,741.4,278z"/>
		<path class="st7" d="M740.5,279.2c-0.1,0-0.1,0.1-0.2,0.1l-0.1,4.9c0,0.6,0.5,1.1,1.1,1.2c0.1,0,0.1-0.1,0.2-0.1l0.1-4.9
			C741.6,279.7,741.1,279.2,740.5,279.2z"/>
		
			<rect x="739.1" y="283.7" transform="matrix(0.9999 1.611447e-02 -1.611447e-02 0.9999 4.8001 -11.9062)" class="st8" width="4.1" height="16.5"/>
		
			<rect x="738.8" y="301.8" transform="matrix(0.9999 1.617499e-02 -1.617499e-02 0.9999 5.1116 -11.9437)" class="st8" width="4.1" height="16.5"/>
		
			<rect x="742" y="283.7" transform="matrix(0.9999 1.614531e-02 -1.614531e-02 0.9999 4.81 -11.9519)" class="st0" width="1.3" height="16.5"/>
		
			<rect x="741.7" y="301.8" transform="matrix(0.9999 1.614838e-02 -1.614838e-02 0.9999 5.1036 -11.9471)" class="st0" width="1.3" height="16.5"/>
		
			<rect x="739.1" y="283.6" transform="matrix(0.9999 1.610204e-02 -1.610204e-02 0.9999 4.7957 -11.8727)" class="st7" width="1.1" height="16.5"/>
		
			<rect x="738.8" y="301.8" transform="matrix(0.9999 1.632658e-02 -1.632658e-02 0.9999 5.1599 -12.0305)" class="st7" width="1.1" height="16.5"/>
		
			<rect x="739" y="300.1" transform="matrix(0.9999 1.611447e-02 -1.611447e-02 0.9999 4.9461 -11.9027)" class="st5" width="4.1" height="1.6"/>
		
			<rect x="741.1" y="300.2" transform="matrix(0.9999 1.617296e-02 -1.617296e-02 0.9999 4.9648 -11.9625)" class="st6" width="2.1" height="1.6"/>
		<polygon class="st5" points="744.2,283.2 738.7,283.1 738.7,283.8 744.1,283.9 744,291.3 743.4,293.3 744,293.3 744.7,293.3 
			744.8,283.9 744.8,283.2 		"/>
	</g>
	<g>
		<path class="st9" d="M758.5,284.3c0.6,0.2,0.9,0.9,0.6,1.5l-1.8,4.6c-0.2,0.6-0.9,0.9-1.5,0.6c-0.6-0.2-0.9-0.9-0.6-1.5l1.8-4.6
			C757.3,284.4,757.9,284.1,758.5,284.3z"/>
		<path class="st10" d="M759,285.7c0.1,0,0.1,0.1,0.1,0.1l-1.8,4.6c-0.2,0.6-0.9,0.9-1.5,0.6c-0.1,0-0.1-0.1-0.1-0.1l1.8-4.6
			C757.7,285.8,758.4,285.5,759,285.7z"/>
		
			<rect x="751.4" y="289" transform="matrix(-0.9318 -0.363 0.363 -0.9318 1347.6771 847.6641)" class="st11" width="4.1" height="16.5"/>
		
			<rect x="744.8" y="305.9" transform="matrix(-0.9318 -0.363 0.363 -0.9318 1328.8221 877.9213)" class="st3" width="4.1" height="16.5"/>
		
			<rect x="751.5" y="288.5" transform="matrix(-0.9318 -0.363 0.363 -0.9318 1345.3049 846.1772)" class="st10" width="1.3" height="16.5"/>
		
			<rect x="744.9" y="305.4" transform="matrix(-0.9318 -0.363 0.363 -0.9318 1326.4237 876.462)" class="st2" width="1.3" height="16.5"/>
		
			<rect x="754.3" y="289.5" transform="matrix(-0.9318 -0.3631 0.3631 -0.9318 1350.1362 849.3134)" class="st9" width="1.1" height="16.5"/>
		
			<rect x="747.7" y="306.4" transform="matrix(-0.9318 -0.3629 0.3629 -0.9318 1331.4077 879.4366)" class="st4" width="1.1" height="16.5"/>
		
			<rect x="748.1" y="304.8" transform="matrix(-0.9318 -0.363 0.363 -0.9318 1338.2556 862.7865)" class="st5" width="4.1" height="1.6"/>
		
			<rect x="748.2" y="304.5" transform="matrix(-0.9318 -0.363 0.363 -0.9318 1336.5253 861.7085)" class="st6" width="2.1" height="1.6"/>
		<polygon class="st5" points="754,288 759.1,290 758.9,290.6 753.8,288.7 751.1,295.6 750.9,297.6 750.4,297.4 749.7,297.2 
			753.2,288.4 753.4,287.8 		"/>
	</g>
	<g>
		<path class="st12" d="M224.5,383.9c0-1.9,16.2-115,41-109.9c24.8,5.2-28.2,112.9-28.2,112.9L224.5,383.9z"/>
		<path class="st13" d="M206.2,388.1c0,0-51.8-80.9-50-105.4c1.8-24.5,43.9-17.4,52.4,34.9c8.5,52.3,9.3,71.4,9.3,71.4L206.2,388.1z
			"/>
		<path class="st14" d="M213.8,385.4c0,0-24.9-96.2-1.5-120.2s33.6,11.4,31.9,41.2c-1.8,29.8-15.3,80.5-15.3,80.5L213.8,385.4z"/>
		<g>
			<polygon class="st15" points="188.1,389.7 200.5,468 222.2,468 243.9,468 256.3,389.7 			"/>
			<polygon class="st16" points="222.2,468 243.9,468 255.3,395.7 214.9,395.7 214.1,468 			"/>
			<path class="st17" d="M247.1,395.7l-7.9,59.5c0,0,6.7,0.3,6.7,0c0-0.3,9.4-59.5,9.4-59.5H247.1z"/>
			<rect x="183.8" y="376.5" class="st16" width="76.8" height="13.3"/>
			<rect x="234.7" y="376.5" class="st17" width="25.9" height="13.3"/>
		</g>
	</g>
	<path class="st18" d="M937.3,294l-4.5-4.5c0,0-1.4-1.7-3.7-1.7h-152c-2.7,0-4.9,2.2-4.9,4.9v105.1c0,1.7,1.1,2.9,2.2,4.1
		c1,1,4.1,4.8,5.1,4.8l149.7-3.9c2.7,0,4.9-2.2,4.9-4.9V294.9L937.3,294z"/>
	<path class="st19" d="M822,323.6c0,0,65.2-6.1,112.1-11v-17.8l3.3-0.9l-4.5-4.5c0,0-1.4-1.7-3.7-1.7h-152c-1.9,0-3.5,1.1-4.3,2.7
		L822,323.6z"/>
	<path class="st20" d="M933.7,292.5h-152c-2.7,0-4.9,2.2-4.9,4.9v105.1c0,2.7,2.2,4.9,4.9,4.9h152c2.7,0,4.9-2.2,4.9-4.9V297.4
		C938.6,294.7,936.5,292.5,933.7,292.5z"/>
	<polygon class="st18" points="897.5,431.5 860.9,431.5 835,338.6 871.6,338.6 	"/>
	<polygon class="st20" points="900.9,434.5 864.3,434.5 838.4,341.6 875,341.6 	"/>
	<polygon class="st19" points="835,338.6 838.4,341.6 875,341.6 871.6,338.6 	"/>
	<path class="st15" d="M641.4,107.2c0,0-3.7-20.4-22.2-26.4c-18.5-6-48.4,1.9-61,11.8c-12.6,9.9-19.4,20.7-19.3,47.1
		c0.2,26.4-3.9,48.7-10,56.5c0,0,14.7,32.2,50.7,35.8c36,3.6,67.1-11.1,85.1-29.9c0,0-11.2-1.6-11.5-28.8
		C652.9,146.1,660.7,112.6,641.4,107.2z"/>
	<polygon class="st21" points="579.4,218 581.7,194.4 618.3,194.4 620.8,218 612.6,237.5 600,237.5 	"/>
	<path class="st22" d="M618.3,194.4h-36.6l-0.8,8.2c0.6,0.5,1.2,0.9,1.8,1.3l16.1,10.2c4,2.5,8.9,2.4,12.8-0.3l8.1-5.7L618.3,194.4z
		"/>
	<rect x="764.6" y="441.7" class="st23" width="361.4" height="323.3"/>
	<path class="st24" d="M716.4,349.6l-57.2-112.1l-9.9,55l26.4,52.5l-11.4,2.1v22.3h40C714.5,369.3,721,358.6,716.4,349.6z"/>
	<path class="st25" d="M717.9,356.4c-18.5,4.2-45.1,4.6-53.5,4.6v8.4h40C712,369.3,717.6,363.2,717.9,356.4z"/>
	<path class="st25" d="M655.1,260.5l-5.7,31.9l26.4,52.5c0.4-0.1,27.5-4.6,27.5-4.6l-11.7-1L655.1,260.5z"/>
	<path class="st24" d="M523.9,237.5l49.5-9.4l5.9-10.1l25.6,12.1l15.8-12.1l5.8,10.1l32.7,9.4v23.7c0,0-38.9,91.9-39.7,91.9
		s-78.9-47.6-78.9-47.6L523.9,237.5z"/>
	<path class="st25" d="M544.5,260.5c-1,8-3.2,23.4-3.2,23.4l-3.8-9.7l-3.3,5l6.4,26.2c0,0,1.6,0.9,4.2,2.5
		c5.4-7,10.5-13.8,10.5-14.1C555.3,293.4,545.5,252.5,544.5,260.5z"/>
	<path class="st11" d="M569.5,228.1l42.6,43.6l15.8-43.6l22,4.5c0,0,16.5,47.1,16.3,57.6c-0.3,10.5-18.3,47.1-16.5,59.9
		c1.8,12.8,13.5,43.3,13.5,43.3H546.4c0,0,7.8-37.8,6-54.6c-1.8-16.8-11.8-33.3-11.8-33.3s13-39.1-6-72.1L569.5,228.1z"/>
	<path class="st26" d="M587.1,353.1c2.6-16.3,63.6-47.8,63.6-47.8s-40.7,3.4-67,2.7c-26.3-0.7-38.7-36-38.7-36l0,0
		c0.6,18.9-4.3,33.5-4.3,33.5s10,16.5,11.8,33.3c1,9.6-1.1,26.2-3.1,38.6C568.5,369.3,585.9,360.2,587.1,353.1z"/>
	<polygon class="st21" points="664.4,350.2 657.9,350.9 647.2,348.2 633.7,357.4 627.5,366.5 664.4,366.5 	"/>
	<polygon class="st22" points="635.2,364.9 640.5,359.8 636.9,365.7 640,365.7 645.9,360.8 641.7,365.7 644.5,365.7 652.6,360.4 
		658.3,362.3 662.2,359.3 664.4,359.3 664.4,366.5 633.4,366.5 	"/>
	<polygon class="st21" points="580.8,349.3 589.9,350.4 605.2,348.2 627.6,357.6 637.8,366.5 580.8,366.5 	"/>
	<polygon class="st22" points="583.6,359.8 594.3,360.4 602,362.8 618.1,360.9 630.3,366.5 583.6,366.5 	"/>
	<path class="st24" d="M514.4,342.8l23.5-53.9c2.2-5.1,2.3-10.9,0.2-16l-14.1-35.4l-48.7,109c-4.8,10.8,3.1,22.9,14.8,22.9h94.4V346
		L514.4,342.8z"/>
	<path class="st25" d="M505.9,338l10.7-0.4l21.2-48.8c2.2-5.1,2.3-10.9,0.2-16l-10.8-27.1c0,0,5.1,26,4.2,32.7
		C530.6,285.1,505.9,338,505.9,338z"/>
	<path class="st25" d="M490.1,369.3h94.4v-8.6l-109.6-12.5c0,0-0.2,0.1-0.4,0.3C471.5,358.7,479.1,369.3,490.1,369.3z"/>
	<rect x="433" y="366.5" class="st27" width="307.8" height="16.6"/>
	<rect x="433.3" y="383.1" class="st23" width="307.6" height="381.9"/>
	
		<rect x="378.1" y="366.5" transform="matrix(-1 -1.224647e-16 1.224647e-16 -1 811.3733 749.6009)" class="st28" width="55.2" height="16.6"/>
	
		<rect x="385.9" y="383.1" transform="matrix(-1 -1.224647e-16 1.224647e-16 -1 819.1381 1148.1079)" class="st29" width="47.4" height="381.9"/>
	
		<rect x="740.9" y="366.5" transform="matrix(-1 -1.224647e-16 1.224647e-16 -1 1511.453 749.6009)" class="st28" width="29.7" height="16.6"/>
	
		<rect x="753.2" y="425.1" transform="matrix(-1 -1.224647e-16 1.224647e-16 -1 1887.5004 866.8236)" class="st28" width="381.1" height="16.6"/>
	
		<rect x="17.5" y="425.1" transform="matrix(-1 -1.224647e-16 1.224647e-16 -1 403.3483 866.8236)" class="st28" width="368.4" height="16.6"/>
	
		<rect x="740.9" y="383.1" transform="matrix(-1 -1.224647e-16 1.224647e-16 -1 1506.4435 1148.1079)" class="st29" width="24.7" height="381.9"/>
	<rect x="24.5" y="441.7" class="st23" width="361.4" height="323.3"/>
	<rect x="470.1" y="421.8" class="st30" width="233.2" height="67.3"/>
	<rect x="435.6" y="323.2" class="st1" width="96.9" height="43.3"/>
	<rect x="447.6" y="339.5" class="st24" width="73" height="21.6"/>
	<path class="st25" d="M573.5,228.1c0,0,24,19,24,18.8c0-0.3,8.5-13.9,8.5-13.9l9,13.9l11.6-18.8c0,0-13,30.3-13.4,29.8
		c-0.3-0.5-8.3-14.4-8.3-14.4l-5.8,14.8L573.5,228.1z"/>
	<path class="st21" d="M634.3,158.4c1.2-30.1-4-39.6-4-39.6c-17.9,24.3-58.8,22-58.8,22v35c0,8.9,4.3,17.1,11.3,21.5l16.1,10.2
		c4,2.5,8.9,2.4,12.8-0.3l14.8-10.4c5.5-3.8,8.6-10.6,8.2-17.7C634.3,172.9,634,165.3,634.3,158.4z"/>
	<path class="st22" d="M630,119.2c-18.1,23.9-58.5,21.7-58.5,21.7v32.8c1.9-12.8,4.9-25.2,4.9-25.2s11.9,0.8,30.8-6
		C623.2,136.7,628.7,123.2,630,119.2z"/>
	<rect x="723.5" y="305.7" class="st31" width="32.2" height="60.8"/>
	<rect x="744" y="305.7" class="st32" width="11.7" height="60.8"/>
	<rect x="723.5" y="305.7" class="st15" width="6.3" height="60.8"/>
	<polygon class="st33" points="24.5,441.7 24.5,455.4 345.4,455.4 345.4,765 385.9,765 385.9,425.1 17.5,441.7 	"/>
	<polygon class="st33" points="385.9,383.1 765.6,383.1 765.6,393.4 385.9,395.7 	"/>
	<polygon class="st33" points="1125.9,441.7 1125.9,451.3 765.6,458.6 764.6,441.7 	"/>
	<path class="st34" d="M607.8,159c0,0,2.7,11.7,5.7,15.3c0,0-1,0.8-2.9,0C608.7,173.5,607.8,159,607.8,159z"/>
	<path class="st15" d="M606.2,190c-4.8,0-8.3-1.3-8.6-1.4c-0.5-0.2-0.8-0.8-0.6-1.3c0.2-0.5,0.8-0.8,1.3-0.6c0.1,0,9.3,3.5,17.4-1.1
		c0.5-0.3,1.1-0.1,1.4,0.4c0.3,0.5,0.1,1.1-0.4,1.4C613.2,189.4,609.4,190,606.2,190z"/>
	<path class="st15" d="M584.2,160.6c-0.1,0-0.1,0-0.2,0l-3.3-1.5c-0.3-0.1-0.4-0.4-0.3-0.7c0.1-0.3,0.4-0.4,0.7-0.3l2.9,1.3
		c1.2-2.5,3-4,7.6-4c5,0,5.5,4.6,5.5,4.6c0,0.3-0.2,0.5-0.4,0.5c-0.3,0.1-0.5-0.2-0.5-0.4c0-0.2-0.5-3.7-4.6-3.7
		c-4.3,0-5.7,1.4-6.8,3.9c-0.1,0.1-0.2,0.2-0.3,0.3C584.4,160.5,584.3,160.6,584.2,160.6z"/>
	<path class="st15" d="M615,160.6C615,160.6,615,160.6,615,160.6c-0.3,0-0.5-0.3-0.5-0.6c0,0,0.5-4.6,5.5-4.6c4.5,0,6.3,1.5,7.6,4
		l2.9-1.3c0.2-0.1,0.5,0,0.7,0.3c0.1,0.3,0,0.6-0.3,0.7l-3.3,1.5c-0.1,0.1-0.3,0.1-0.4,0c-0.1-0.1-0.2-0.1-0.3-0.3
		c-1.1-2.5-2.5-3.9-6.8-3.9c-4.1,0-4.5,3.6-4.6,3.7C615.5,160.4,615.3,160.6,615,160.6z"/>
	<path class="st15" d="M589,145.3c4,0,7.4,2.1,9,5.1c-0.9-4-4.6-7-9.2-7c-5,0-9,3.6-9.3,8.2C580.7,148,584.5,145.3,589,145.3z"/>
	<path class="st15" d="M622.2,145.3c4,0,7.4,2.1,9,5.1c-0.9-4-4.6-7-9.2-7c-5,0-9,3.6-9.3,8.2C613.9,148,617.7,145.3,622.2,145.3z"
		/>
	<path class="st35" d="M595.3,169.3c0,1.9-3.7,3.4-8.3,3.4c-4.6,0-8.3-1.5-8.3-3.4s3.7-3.4,8.3-3.4
		C591.6,165.9,595.3,167.5,595.3,169.3z"/>
	<path class="st35" d="M632.3,169.3c0,1.9-3.7,3.4-8.3,3.4c-4.6,0-8.3-1.5-8.3-3.4s3.7-3.4,8.3-3.4
		C628.6,165.9,632.3,167.5,632.3,169.3z"/>
	<path class="st22" d="M613.5,175.7c0,0-2,1.8-6.4,1.5c-4.4-0.3-5.1-0.7-5.1-0.7s3,3.1,6.6,3.3C612.2,180,613.5,175.7,613.5,175.7z"
		/>
	<path class="st36" d="M641.4,107.2c0,0-3.7-20.4-22.2-26.4c-18.5-6-48.4,1.9-61,11.8c-12.6,9.9-19.4,20.7-19.3,47.1
		c0.1,12.1-0.7,23.2-2.2,32.6c3.3-6.2,6.8-14.1,9.6-23.2c7.3-23.5,7.5-32.8,9-32.8c1.5,0,14.8,7.8,38.3-1.3
		c8.3-3.2,14.9-6.8,19.9-10.2c8.4-5.6,19.5-4.4,26.5,2.9c0,0-5.5,15.5,0,22.3c5.5,6.8,8.4,5.8,9.4,12.3c0.6,4.5,0.8,16.9,3.9,25.4
		C653.8,141.7,659.4,112.3,641.4,107.2z"/>
</g>
</svg>
