<?xml version="1.0" encoding="utf-8"?>
<!-- Generator: Adobe Illustrator 22.1.0, SVG Export Plug-In . SVG Version: 6.00 Build 0)  -->
<svg version="1.1" id="_x38_13c2686-e70f-4fb0-bf6b-a2eb7b1db384"
	 xmlns="http://www.w3.org/2000/svg" xmlns:xlink="http://www.w3.org/1999/xlink" x="0px" y="0px" viewBox="0 0 1121 851.8"
	 style="enable-background:new 0 0 1121 851.8;" xml:space="preserve">
<style type="text/css">
	.st0{opacity:0.2;fill:url(#SVGID_1_);}
	.st1{fill:#475666;}
	.st2{fill:#2E7EDD;}
	.st3{fill:#FAA285;}
	.st4{fill:#FFFFFF;}
	.st5{fill:#FCC7A3;}
	.st6{fill:none;stroke:#DE7D68;stroke-width:2;stroke-linecap:round;stroke-linejoin:round;stroke-miterlimit:10;}
	.st7{fill:#3B4854;}
	.st8{fill:none;stroke:#475666;stroke-width:1.5;stroke-miterlimit:10;}
	.st9{fill:#1666B9;}
	.st10{clip-path:url(#SVGID_3_);fill:#475666;}
	.st11{fill:none;stroke:#596675;stroke-width:1.5;stroke-miterlimit:10;}
</style>
<title>interaction design</title>
<g>
	<g>
		<linearGradient id="SVGID_1_" gradientUnits="userSpaceOnUse" x1="566.5333" y1="913.0645" x2="566.5333" y2="800.105">
			<stop  offset="0" style="stop-color:#042A37;stop-opacity:0"/>
			<stop  offset="1" style="stop-color:#042A37"/>
		</linearGradient>
		<path class="st0" d="M1097.4,913.1H35.6V810.7c0-5.9,4.8-10.6,10.6-10.6h1040.6c5.9,0,10.6,4.8,10.6,10.6V913.1z"/>
		<g>
			<g>
				<path class="st1" d="M413.2,437.2c0,0-1.9,63.8,3.2,85.7c3,12.8,11.3,16.2,17.8,16.8c3.7,0.4,5.5,4.6,3.5,7.7
					c-11.7,17.4-45.2,53-106.3,9.7c-66.4-47.2-5.1-107.4-5.1-107.4L413.2,437.2z"/>
				<path class="st1" d="M222.7,452.4c-13.7-4.7-27.6-3.3-40,4c-5.6,3.3,0.3,11.5,5.9,8.2c9.1-5.3,19.9-6.4,29.9-3
					C224.6,463.8,228.9,454.6,222.7,452.4z"/>
				<g>
					<path class="st2" d="M311.2,599.5L311.2,599.5c-14-2.8-28.9,7.1-32.4,21.6l-13,77.7c14.2,5,29,8.4,44,9.6l17.7-80.1
						C331.4,614.9,324.2,602.1,311.2,599.5z"/>
					<path class="st3" d="M262.1,721l-88.5,50.4c0,0-32.5-27.4-62.3,0c-29.8,27.4-3.5,28.7-3.5,28.7h63.6l94.7-33.3
						c18.6-4.1,34.1-19,39.1-37.3l4.7-21.1c-15-1.2-29.8-4.6-44-9.6L262.1,721z"/>
				</g>
				<path class="st4" d="M267.9,800.1h153.9L436,623.5c3.3-40.6-30.2-75.4-72.6-75.4h0c-37,0-68.1,26.6-72.3,61.9L267.9,800.1z"/>
				<path class="st2" d="M321.9,595.8c38,17.9,56.1-8.9,66.5-43.4c-7.8-2.7-16.2-4.2-25-4.2l0,0c-23,0-43.7,10.3-57.1,26.5
					C307.9,584.5,314.3,590.7,321.9,595.8z"/>
				<path class="st2" d="M404.4,599.5L404.4,599.5c-14.3-2.8-28,7.1-29.8,21.6l-3.4,77.7c14.8,5,30,8.4,45.2,9.6l7.9-80.1
					C426.5,614.9,417.8,602.1,404.4,599.5z"/>
				<path class="st5" d="M352,732.2l-64,39.2c0,0-35.9-27.4-62.3,0c-26.4,27.4,0,28.7,0,28.7h63.6l62.2-22.9
					C358.6,764.2,359.1,746,352,732.2z"/>
				<path class="st3" d="M371.3,698.8l-1,22.2L352,732.2c7.1,13.8,6.6,32-0.6,45.1l28.4-10.5c18.1-4.1,31.8-19,34.5-37.3l2.1-21.1
					C401.2,707.1,386,703.7,371.3,698.8z"/>
				<path class="st3" d="M360.7,521.3l17.2,28.3L365,575.3c-10.4,20.8-40.9,18.5-48-3.7l-8.9-27.9L360.7,521.3z"/>
				<path class="st5" d="M297.6,575L297.6,575c-49.7,5.7-94.6-30-100.3-79.7l-8.2-71.6c-5.7-49.7,30-94.6,79.7-100.3l0,0
					c49.7-5.7,94.6,30,100.3,79.7l8.2,71.6C383,524.4,347.3,569.3,297.6,575z"/>
				<path class="st6" d="M278.6,525.3c-3.5,10.6-12,19.2-23.5,22.4c-10.5,2.9-21.2,0.6-29.3-5.4"/>
				<path class="st1" d="M259.4,439.6c-13.7-4.7-27.6-3.3-40,4c-5.6,3.3,0.3,11.5,5.9,8.2c9.1-5.3,19.9-6.4,29.9-3
					C261.3,450.9,265.6,441.7,259.4,439.6z"/>
				<path class="st1" d="M397.6,355.7c-13.7-4.7-27.6-3.3-40,4c-5.6,3.3,0.3,11.5,5.9,8.2c9.1-5.3,19.9-6.4,29.9-3
					C399.5,367,403.8,357.8,397.6,355.7z"/>
				<path class="st1" d="M114.3,782h225.2c2,0,3.5,1.6,3.5,3.5v11c0,2-1.6,3.5-3.5,3.5H114.3c-2,0-3.5-1.6-3.5-3.5v-11
					C110.7,783.6,112.3,782,114.3,782z"/>
				<path class="st1" d="M242.3,788.2l-37.9-159.3c-1-4.4-4.9-7.4-9.4-7.4H27.7c-6.2,0-10.9,5.8-9.4,11.9l37.2,159.3
					c1,4.4,4.9,7.5,9.4,7.5h168.1C239.2,800.1,243.8,794.3,242.3,788.2z"/>
				<path class="st7" d="M229.8,800.1l-40.8-171.2c-1-4.4-4.9-7.4-9.4-7.4h-152c-6.2,0-10.9,5.8-9.4,11.9l37.2,159.3
					c1,4.4,4.9,7.5,9.4,7.5H229.8z"/>
				<path class="st8" d="M107.3,720c2.3,10.4,9.1,17.7,15.2,16.4c6.1-1.3,9.2-10.8,6.9-21.2c-2.3-10.4-9.1-17.7-15.2-16.4
					S105,709.6,107.3,720z"/>
				<path class="st1" d="M361.8,473.8c0,0-68.1,4-70.6-64.2c0,0-66.4,24.5-123.6,18.8c-4.5-0.4-7.9-4.5-7.5-9
					c2-24.1,14.2-95.1,88.1-112c89.3-20.4,115.7,50.5,115.7,50.5s23.3,8,38.9,34.1c21.8,36.5,7.9,102.8-27.3,113.8L361.8,473.8z"/>
				<g>
					<path class="st3" d="M220.7,515.9l-3.7-11.9l-3.7-11.9c-0.8-2.7-3.1-4-5.4-4.1c-2.3-0.1-4.7,1.1-5.7,3.7l-4.6,11.5l-4.6,11.5
						c-1.9,4.8-1.2,9.8,1.3,13.6c2.5,3.9,6.7,6.6,11.9,6.8l0,0l0,0c5.1,0.2,9.6-2.2,12.4-5.8C221.1,525.7,222.2,520.8,220.7,515.9z"
						/>
				</g>
				<path class="st3" d="M366.7,437.2c-6.8,0-13,2.6-17.7,6.7c1.2,3.4,20.8,48.6,20.8,48.6c12.8-2,23.7-15.1,23.7-28.5
					C393.5,449.2,381.5,437.2,366.7,437.2z"/>
				<path class="st1" d="M254.7,492.5c0,6.7-5.4,12.1-12.1,12.1c-6.7,0-12.1-5.4-12.1-12.1s5.4-12.1,12.1-12.1
					C249.3,480.4,254.7,485.8,254.7,492.5z"/>
			</g>
			<g>
				<path class="st1" d="M970.8,374c4.9-9.3,7.4-20.1,6.6-31.4c-2.2-32.2-30.2-56.6-62.4-54.3c-9.8,0.7-18.9,3.7-26.7,8.6
					c-9-13.6-24.8-22.2-42.3-21c-17.4,1.2-31.9,11.8-39,26.5c-8.4-3.7-17.7-5.4-27.5-4.8c-32.2,2.2-56.6,30.2-54.3,62.4
					c0.5,7.1,2.2,13.8,5,19.9c-16.3,8.2-26.9,25.6-25.6,45c1.8,25.8,24.1,45.2,49.9,43.4c25.8-1.8,45.2-24.1,43.4-49.9
					c-0.1-1.9-0.4-3.8-0.8-5.6c22-5.2,38.8-22.7,43.5-44.4c3.8,0.7,7.7,1,11.7,0.7c4.1-0.3,8-1.1,11.7-2.4
					c6.7,18.2,22.1,31.9,40.8,36.6c-0.1,1.5-0.1,3.1,0,4.6c1.5,22.2,20.8,39,43.1,37.5c22.2-1.5,39-20.8,37.5-43.1
					C984.8,390.9,979.1,380.9,970.8,374z"/>
				<path class="st1" d="M910.3,452.4c13.7-4.7,27.6-3.3,40,4c5.6,3.3-0.3,11.5-5.9,8.2c-9.1-5.3-19.9-6.4-29.9-3
					C908.4,463.8,904.2,454.6,910.3,452.4z"/>
				<path class="st7" d="M876.1,507.9l16.4-46.9c0.9-2.6,3.6-4,6.2-3.3l47.6,13.1c2.8,0.8,4.4,3.7,3.5,6.5l-14.8,46.6
					c-0.8,2.6-3.6,4.1-6.2,3.4l-49.2-12.8C876.7,513.8,875.1,510.7,876.1,507.9z"/>
				<g>
					<path class="st9" d="M821.8,599.5L821.8,599.5c14-2.8,28.9,7.1,32.4,21.6l13,77.7c-14.2,5-29,8.4-44,9.6l-17.7-80.1
						C801.6,614.9,808.9,602.1,821.8,599.5z"/>
					<path class="st3" d="M870.9,721l88.5,50.4c0,0,32.5-27.4,62.3,0c29.8,27.4,3.5,28.7,3.5,28.7h-63.6L867,766.8
						c-18.6-4.1-34.1-19-39.1-37.3l-4.7-21.1c15-1.2,29.8-4.6,44-9.6L870.9,721z"/>
				</g>
				<path class="st2" d="M865.1,800.1H711.3l-14.2-176.6c-3.3-40.6,30.2-75.4,72.6-75.4h0c37,0,68.1,26.6,72.3,61.9L865.1,800.1z"/>
				<path class="st4" d="M848.1,659.8c-48.8,3.4-98.1,6.5-147.3,9.9l5,62.4c49.6-4.2,99.4-7.5,149.8-10.8L848.1,659.8z"/>
				<path class="st9" d="M728.6,599.5L728.6,599.5c14.3-2.8,28,7.1,29.8,21.6l3.4,77.7c-14.8,5-30,8.4-45.2,9.6l-7.9-80.1
					C706.5,614.9,715.3,602.1,728.6,599.5z"/>
				<path class="st5" d="M781.1,732.2l64,39.2c0,0,35.9-27.4,62.3,0c26.4,27.4,0,28.7,0,28.7h-63.6l-62.2-22.9
					C774.5,764.2,774,746,781.1,732.2z"/>
				<path class="st3" d="M761.8,698.8l1,22.2l18.3,11.2c-7.1,13.8-6.6,32,0.6,45.1l-28.4-10.5c-18.1-4.1-31.8-19-34.5-37.3
					l-2.1-21.1C731.8,707.1,747,703.7,761.8,698.8z"/>
				<path class="st3" d="M772.4,521.3l-17.2,28.3l12.9,25.8c10.4,20.8,40.9,18.5,48-3.7l8.9-27.9L772.4,521.3z"/>
				<path class="st5" d="M835.5,575L835.5,575c49.7,5.7,94.6-30,100.3-79.7l8.2-71.6c5.7-49.7-30-94.6-79.7-100.3l0,0
					c-49.7-5.7-94.6,30-100.3,79.7l-8.2,71.6C750,524.4,785.7,569.3,835.5,575z"/>
				<path class="st6" d="M854.5,525.3c3.5,10.6,12,19.2,23.5,22.4c10.5,2.9,21.2,0.6,29.3-5.4"/>
				<path class="st1" d="M873.6,439.6c13.7-4.7,27.6-3.3,40,4c5.6,3.3-0.3,11.5-5.9,8.2c-9.1-5.3-19.9-6.4-29.9-3
					C871.7,450.9,867.4,441.7,873.6,439.6z"/>
				<path class="st1" d="M1018.8,782H793.6c-2,0-3.5,1.6-3.5,3.5v11c0,2,1.6,3.5,3.5,3.5h225.2c2,0,3.5-1.6,3.5-3.5v-11
					C1022.3,783.6,1020.7,782,1018.8,782z"/>
				<path class="st1" d="M890.7,788.2l37.9-159.3c1-4.4,4.9-7.4,9.4-7.4h167.3c6.2,0,10.9,5.8,9.4,11.9l-37.2,159.3
					c-1,4.4-4.9,7.5-9.4,7.5H900.2C893.9,800.1,889.3,794.3,890.7,788.2z"/>
				<path class="st7" d="M903.2,800.1L944,628.9c1-4.4,4.9-7.4,9.4-7.4h152c6.2,0,10.9,5.8,9.4,11.9l-37.2,159.3
					c-1,4.4-4.9,7.5-9.4,7.5H903.2z"/>
				<path class="st1" d="M771.3,473.8c0,0,68.1,4,70.6-64.2c0,0,48.6,16.8,105.7,11.2c4.5-0.4,7.9-4.5,7.5-9
					c-2-24.1-11.1-73.7-70.2-89c-88.7-22.9-115.7,35.1-115.7,35.1s-10.5,8.2-26.2,34.4c-21.8,36.5-20.6,102.6,14.5,113.6
					L771.3,473.8z"/>
				<g>
					<path class="st3" d="M910,516.6l4.4-13.9l4.4-13.9c1-3.1,3.6-4.7,6.3-4.8c2.7-0.1,5.5,1.3,6.7,4.3l5.4,13.5l5.4,13.5
						c2.2,5.6,1.4,11.4-1.5,15.9c-2.9,4.5-7.9,7.7-13.9,7.9l0,0l0,0c-6,0.2-11.2-2.5-14.5-6.8C909.5,528.1,908.2,522.4,910,516.6z"
						/>
					<path class="st7" d="M845.1,503.2l16.4-46.9c0.9-2.6,3.6-4,6.2-3.3l53.1,13.1c2.8,0.8,4.4,3.7,3.5,6.5l-14.8,46.6
						c-0.8,2.6-3.6,4.1-6.2,3.4l-54.7-12.8C845.8,509.2,844.1,506.1,845.1,503.2z"/>
					<polygon class="st4" points="913,474.7 869.6,464.2 856.6,501.4 901.3,511.6 					"/>
				</g>
				<path class="st7" d="M865.1,461.9l-86.1-37.2c-5.4-2.5-11.8,0.2-13.8,5.8l0,0c-1.9,5.4,1,11.3,6.4,13l90,29.8L865.1,461.9z"/>
				<path class="st3" d="M766.3,437.2c6.8,0,13,2.6,17.7,6.7c-1.2,3.4-20.8,48.6-20.8,48.6c-12.8-2-23.7-15.1-23.7-28.5
					C739.5,449.2,751.5,437.2,766.3,437.2z"/>
				<g>
					<defs>
						<polygon id="SVGID_2_" points="913,474.7 869.6,464.2 856.6,501.4 901.3,511.6 						"/>
					</defs>
					<clipPath id="SVGID_3_">
						<use xlink:href="#SVGID_2_"  style="overflow:visible;"/>
					</clipPath>
					<path class="st10" d="M883.1,502.3c0,6.7,5.4,12.1,12.1,12.1c6.7,0,12.1-5.4,12.1-12.1c0-6.7-5.4-12.1-12.1-12.1
						C888.5,490.1,883.1,495.6,883.1,502.3z"/>
				</g>
				<polygon class="st7" points="918.7,479.9 940.2,485.9 937.9,498.3 913,492.5 				"/>
				<path class="st8" d="M1033,720c-2.3,10.4-9.1,17.7-15.2,16.4c-6.1-1.3-9.2-10.8-6.9-21.2c2.3-10.4,9.1-17.7,15.2-16.4
					S1035.3,709.6,1033,720z"/>
			</g>
			<g>
				<g>
					<circle class="st3" cx="479.7" cy="449.2" r="26.8"/>
					<circle class="st3" cx="651.4" cy="449.2" r="26.8"/>
				</g>
				<path class="st1" d="M635.4,482.9c0,0,27.8-10.5,34.8-60.7c6.4-46.1-4.9-126.8-97.2-135.5c-70.7-6.7-111.4,43.7-118.7,103.7
					c-0.2,1.9,7.4,4.5,7.4,4.5s-9.6,70.3,21.9,87.8C504.4,494.3,635.4,482.9,635.4,482.9z"/>
				<path class="st2" d="M678.2,800.1H452.9V591.5c0-24.4,19.8-44.1,44.1-44.1h137c24.4,0,44.1,19.8,44.1,44.1V800.1z"/>
				<path class="st4" d="M582.9,549.1h-34.7c-38.4,13.9-27.1,45.2-10.4,49.4c11.1,2.8,21.2-3.7,27.8-7.3c6.6,3.7,16.7,10.1,27.8,7.3
					C609.9,594.2,621.3,563,582.9,549.1z"/>
				<path class="st3" d="M581.9,589.1h-32.7c-5.8,0-10.5-4.7-10.5-10.5v-51.1c0-1.3,1.1-2.4,2.4-2.4h49c1.3,0,2.4,1.1,2.4,2.4v51.1
					C592.4,584.4,587.7,589.1,581.9,589.1z"/>
				<path class="st5" d="M565.5,546.7L565.5,546.7c-50,0-90.6-40.6-90.6-90.6v-72.1c0-50,40.6-90.6,90.6-90.6h0
					c50,0,90.6,40.6,90.6,90.6v72.1C656.1,506.2,615.6,546.7,565.5,546.7z"/>
				<path class="st1" d="M721.3,621.4H409.8c-9.7,0-16.6,7.8-15.4,17.3l18,147.8c0.9,7.5,8.5,13.5,17,13.5h272.5c8.5,0,16-6,17-13.5
					l18-147.8C737.8,629.2,730.9,621.4,721.3,621.4z"/>
				<g>
					<path class="st5" d="M740.3,737.2c-6.3-9-15.8-14.9-26.7-16.6l-15.2-2.3c-3.5-0.6-6.7,1.2-8,4.5c-1.3,3.2-0.2,6.8,2.9,8.9
						l7.6,4.6l-13.1-0.9c-0.1,0-0.3,0-0.4,0c-3.3,0.1-6.1,2.3-6.9,5.6c-0.8,3.2,0.7,6.5,3.4,8l13.9,8.3l-14,0.7c-0.1,0-0.2,0-0.4,0
						c-3.3,0.4-5.9,2.9-6.3,6.3c-0.4,3.3,1.3,6.4,4.2,7.6l13.6,6.4l-11.7,2.1c-0.1,0-0.2,0-0.3,0.1c-3.3,0.8-5.5,3.7-5.5,7.1
						c0,3.4,2.2,6.2,5.3,7l13.4,4c2.6,0.8,5.2,1.3,7.8,1.5c8.4,0.8,16.9-1.2,24.2-5.5c9.6-5.8,16.4-15.4,18.6-26.4
						C748.9,757.2,746.6,746.3,740.3,737.2z"/>
					<path class="st5" d="M390.7,737.2c6.3-9,15.8-14.9,26.7-16.6l15.2-2.3c3.5-0.6,6.7,1.2,8,4.5c1.3,3.2,0.2,6.8-2.9,8.9l-7.6,4.6
						l13.1-0.9c0.1,0,0.3,0,0.4,0c3.3,0.1,6.1,2.3,6.9,5.6c0.8,3.2-0.7,6.5-3.4,8l-13.9,8.3l14,0.7c0.1,0,0.2,0,0.4,0
						c3.3,0.4,5.9,2.9,6.3,6.3c0.4,3.3-1.3,6.4-4.2,7.6l-13.6,6.4l11.7,2.1c0.1,0,0.2,0,0.3,0.1c3.3,0.8,5.5,3.7,5.5,7.1
						c0,3.4-2.2,6.2-5.3,7l-13.4,4c-2.6,0.8-5.2,1.3-7.8,1.5c-8.4,0.8-16.9-1.2-24.2-5.5c-9.6-5.8-16.4-15.4-18.6-26.4
						C382.1,757.2,384.4,746.3,390.7,737.2z"/>
				</g>
				<path class="st1" d="M531.6,456.8c0,6.7-5.4,12.1-12.1,12.1c-6.7,0-12.1-5.4-12.1-12.1s5.4-12.1,12.1-12.1
					C526.1,444.7,531.6,450.1,531.6,456.8z"/>
				<circle class="st1" cx="607.3" cy="456.8" r="12.1"/>
				<path class="st3" d="M578.8,473.6l-4-11.2l-4-11.2c-0.9-2.5-3.1-3.7-5.3-3.7s-4.4,1.2-5.3,3.7l-4,11.2l-4,11.2
					c-1.6,4.6-0.8,9.3,1.7,12.9c2.5,3.6,6.7,6,11.6,6l0,0l0,0c4.9,0,9-2.4,11.6-6C579.6,483,580.5,478.2,578.8,473.6z"/>
				<path class="st6" d="M600.3,499.4c-6.9,10.4-18.8,17.3-32.2,17.3c-12.2,0-23.1-5.7-30.2-14.6"/>
				<path class="st1" d="M648.8,339c0.2-0.3,0.3-0.5,0.5-0.8c0.5,0.1,1,0,1.6-0.2c4-1.3,8-2.7,12.1-4c4.7-1.5,2.7-8.9-2-7.4
					c-1.1,0.4-2.3,0.7-3.4,1.1c1.2-3.5,2-7,2.4-10.8c0.5-4.9-7.1-4.9-7.7,0c-0.5,5.1-2.2,9.9-4.7,14.3c-0.3,0.2-0.5,0.5-0.7,0.7
					c-0.7-0.1-1.5,0-2.2,0.3c-17-26-44.1-44.8-81.8-43.3c-90.4,3.5-99.2,104.6-99.2,104.6c16.9,1.9,36,1.7,51.8-0.3
					c1-0.1,1.8-0.8,1.9-1.7c1.4-6.4,5.3-17.7,5.3-17.7c0.8,6.1,2.3,10.7,4,15.8c0.3,1,1.5,1.6,2.6,1.4c6.6-1.2,13.1-2.7,19.3-4.3
					c0.9-0.2,1.5-0.9,1.7-1.7c1.2-6.8,1.9-13.6,2.6-21.1c2.1,4.1,5.2,15.5,6.3,19.8c0.3,1,1.2,1.6,2.2,1.5c22-2.2,41-10.5,54.4-18.2
					c-13.5,11.1-29.5,18.8-46.9,22.1c-4.6,0.9-4.2,8.5,0.5,7.6c24.4-4.7,46.2-16.9,62.8-35c1.1,18.8-1.2,37.4,4.6,56.2
					c1.4,4.7,8.5,2.5,7-2.2c-3.9-12.5-4.1-25.1-4.2-37.7c7.2,42.2,20.1,70.2,20.1,70.2C672.1,420.8,669,374.6,648.8,339z"/>
				<path class="st1" d="M534.3,418.4c-14.3-2.4-27.7,1.1-38.9,10.3c-5,4.2,2.2,11.3,7.2,7.2c8.1-6.7,18.6-9.5,29-7.7
					C538,429.3,540.8,419.5,534.3,418.4z"/>
				<path class="st1" d="M594.4,418.4c14.3-2.4,27.7,1.1,38.9,10.3c5,4.2-2.2,11.3-7.2,7.2c-8.1-6.7-18.6-9.5-29-7.7
					C590.7,429.3,587.9,419.5,594.4,418.4z"/>
			</g>
			
				<ellipse transform="matrix(0.7071 -0.7071 0.7071 0.7071 -342.2015 610.2471)" class="st11" cx="565.5" cy="718.2" rx="19.2" ry="19.2"/>
		</g>
	</g>
</g>
</svg>
